<svg id="Lager_1" data-name="Lager 1" xmlns="http://www.w3.org/2000/svg" xmlns:xlink="http://www.w3.org/1999/xlink" viewBox="0 0 315.01 78.11"><defs><style>.cls-1{fill:#343434;}.cls-2{fill:#1d1d1b;}.cls-3{clip-path:url(#clip-path);}.cls-4{fill:#fff;}.cls-5{fill:none;stroke:#343434;stroke-miterlimit:10;stroke-width:2px;}</style><clipPath id="clip-path" transform="translate(-54.69 -32.01)"><path class="cls-1" d="M231.55,47.92l-.26-.16-.14-.08-.16-.1-.18-.11-.2-.13-.22-.14-.23-.15L230,47l-.12-.08-.24-.17-.25-.18-.06,0-.06,0-.12-.1-.12-.1-.12-.1a3.55,3.55,0,0,1-.34-.31l-.1-.09c-.07-.05-.12-.13-.19-.18h0c.06-.91.07-1.82,0-2.78,0-.78-.34-2.09-.47-3.23a14.76,14.76,0,0,0-.18-2.2,6.82,6.82,0,0,0-.83-1.82c-.31-.54-.13-.83-.56-1.6a2.28,2.28,0,0,0-2.3-1.38,15.65,15.65,0,0,0-2.53.44c-1.88.24-2.61-.49-3.57-.66s-1.6,0-2.61-.16a17.37,17.37,0,0,0-4.4,0,17,17,0,0,0-7,2.82,15.4,15.4,0,0,0-3.61,4,6.84,6.84,0,0,0-1.06,3.64c0,1.1.3,3.52.22,6.42s.05,3.81.16,3.88.36,0,.35-.44c0-1.3,0-4.18,0-5.2.06-1.23.12-4.32.12-4.32A36.21,36.21,0,0,0,201.18,48a11.83,11.83,0,0,1,.57,5,14.47,14.47,0,0,0-.09,4.05.35.35,0,0,0,.25.25,9.53,9.53,0,0,0,3.66-.05.84.84,0,0,0-.13-.95c-.87-1.07-1-3.44-1.08-4.52-.15-1.51.4-2.14.64-2.13,1,0,3,6.66,2.89,7.36s4,.18,3.9-.58-.87-1.27-1.38-2.11-1-2.13-1.56-3.23-.44-1.77.07-2.31a2.61,2.61,0,0,0,.48-2,16.44,16.44,0,0,1,2.27-.55,8.66,8.66,0,0,1,2.11,0,.93.93,0,0,1,.54.87c0,.38-.15,7.25-.38,7.85s-.91,1.07-.69,1.88a.26.26,0,0,0,.2.19,6.52,6.52,0,0,0,3.37-.13.4.4,0,0,0,.21-.3c.09-.71-.64-.94-.8-1.36s.11-1.21.52-2.4c.53-1.53.73-2.63,1-3.36.64,1.62,2.09,4.22,2.16,5.49,0,.74-.56,1.2-.31,1.79a.34.34,0,0,0,.28.21,9.72,9.72,0,0,0,3.15-.1.32.32,0,0,0,.23-.36c-.08-.51-1-1-1.25-1.85a23.81,23.81,0,0,1-.39-2.85c-.19-1-1.17-5.52-1.37-7.13a2.81,2.81,0,0,0,.49-1.72c.84-.15.87-1.14.87-1.14a26.82,26.82,0,0,1,2.67,1c.58.33.88,1,1.08,1s0-1.13.12-1.15.38.32.45.87.32,3.67.35,4.52.11,3.74.18,4.34.4,2.07-.49,2.16c-.19,0-.58-.05-.65,0-.53.22-.4.85.25.85A2.14,2.14,0,0,0,227.74,54c.38-1.22,0-1.78.3-4.92.07-.9.13-1.88.2-2.71l0,0,.27.22.13.11.14.1c.18.13.37.25.55.36l.27.15.13.07.13.07.26.12.24.11.22.09.21.08.33.12.29.09a.11.11,0,0,0,.09-.19Z"/></clipPath></defs><title>Walltw_a grey</title><path class="cls-2" d="M191.62,57.44l1.9,0,2.18,0,2.83,0,3.35,0,3.73,0,4,0h8.24l4,0c2.59,0,5,0,7.08.06l2.83,0,2.18,0,1.9,0-1.9,0-2.18,0-2.83,0c-2.07,0-4.49.05-7.08.06l-4,0H209.6l-4,0-3.73,0-3.35,0-2.83,0-2.18,0Z" transform="translate(-54.69 -32.01)"/><path class="cls-2" d="M198,56.63h.35l1,0,3.57-.08,2.38,0,2.66,0,2.84,0h5.87l2.84,0,5,.06,3.57.08,1,0h0l-1,0-3.57.08-5,.06-2.84,0h-5.87l-2.84,0-2.66,0-2.38,0-3.57-.08-1,0Z" transform="translate(-54.69 -32.01)"/><path class="cls-1" d="M231.55,47.92l-.26-.16-.14-.08-.16-.1-.18-.11-.2-.13-.22-.14-.23-.15L230,47l-.12-.08-.24-.17-.25-.18-.06,0-.06,0-.12-.1-.12-.1-.12-.1a3.55,3.55,0,0,1-.34-.31l-.1-.09c-.07-.05-.12-.13-.19-.18h0c.06-.91.07-1.82,0-2.78,0-.78-.34-2.09-.47-3.23a14.76,14.76,0,0,0-.18-2.2,6.82,6.82,0,0,0-.83-1.82c-.31-.54-.13-.83-.56-1.6a2.28,2.28,0,0,0-2.3-1.38,15.65,15.65,0,0,0-2.53.44c-1.88.24-2.61-.49-3.57-.66s-1.6,0-2.61-.16a17.37,17.37,0,0,0-4.4,0,17,17,0,0,0-7,2.82,15.4,15.4,0,0,0-3.61,4,6.84,6.84,0,0,0-1.06,3.64c0,1.1.3,3.52.22,6.42s.05,3.81.16,3.88.36,0,.35-.44c0-1.3,0-4.18,0-5.2.06-1.23.12-4.32.12-4.32A36.21,36.21,0,0,0,201.18,48a11.83,11.83,0,0,1,.57,5,14.47,14.47,0,0,0-.09,4.05.35.35,0,0,0,.25.25,9.53,9.53,0,0,0,3.66-.05.84.84,0,0,0-.13-.95c-.87-1.07-1-3.44-1.08-4.52-.15-1.51.4-2.14.64-2.13,1,0,3,6.66,2.89,7.36s4,.18,3.9-.58-.87-1.27-1.38-2.11-1-2.13-1.56-3.23-.44-1.77.07-2.31a2.61,2.61,0,0,0,.48-2,16.44,16.44,0,0,1,2.27-.55,8.66,8.66,0,0,1,2.11,0,.93.93,0,0,1,.54.87c0,.38-.15,7.25-.38,7.85s-.91,1.07-.69,1.88a.26.26,0,0,0,.2.19,6.52,6.52,0,0,0,3.37-.13.4.4,0,0,0,.21-.3c.09-.71-.64-.94-.8-1.36s.11-1.21.52-2.4c.53-1.53.73-2.63,1-3.36.64,1.62,2.09,4.22,2.16,5.49,0,.74-.56,1.2-.31,1.79a.34.34,0,0,0,.28.21,9.72,9.72,0,0,0,3.15-.1.32.32,0,0,0,.23-.36c-.08-.51-1-1-1.25-1.85a23.81,23.81,0,0,1-.39-2.85c-.19-1-1.17-5.52-1.37-7.13a2.81,2.81,0,0,0,.49-1.72c.84-.15.87-1.14.87-1.14a26.82,26.82,0,0,1,2.67,1c.58.33.88,1,1.08,1s0-1.13.12-1.15.38.32.45.87.32,3.67.35,4.52.11,3.74.18,4.34.4,2.07-.49,2.16c-.19,0-.58-.05-.65,0-.53.22-.4.85.25.85A2.14,2.14,0,0,0,227.74,54c.38-1.22,0-1.78.3-4.92.07-.9.13-1.88.2-2.71l0,0,.27.22.13.11.14.1c.18.13.37.25.55.36l.27.15.13.07.13.07.26.12.24.11.22.09.21.08.33.12.29.09a.11.11,0,0,0,.09-.19Z" transform="translate(-54.69 -32.01)"/><g class="cls-3"><path class="cls-4" d="M204.89,49.71l.11-.1.12-.11.16-.14.18-.17.1-.1.1-.1.1-.11.1-.12.09-.12.09-.13c.06-.09.11-.17.16-.26l0-.07,0-.07.06-.13.05-.13,0-.13c0-.08.05-.17.07-.24s0-.15.05-.21,0-.12,0-.16l0-.14,0,.14s0,.1,0,.17,0,.14,0,.21,0,.16-.05.25l0,.14,0,.14s0,.1,0,.14l0,.07,0,.07c0,.1-.09.19-.14.29l-.08.14-.09.14-.09.13-.09.12-.09.12-.09.11-.17.2-.15.16-.11.12-.1.11Z" transform="translate(-54.69 -32.01)"/><path class="cls-4" d="M217.48,50.53l.22-.89.22-.91c.08-.33.16-.69.23-1,.15-.71.28-1.43.36-2l0-.19,0-.18c0-.11,0-.21,0-.29s0-.14,0-.19v0s0,.11,0,.19,0,.18,0,.29v.37c0,.55-.11,1.28-.21,2,0,.36-.1.73-.16,1.07s-.11.66-.15.93l-.16.9Z" transform="translate(-54.69 -32.01)"/><path class="cls-4" d="M213.9,47.39v-.55c0-.06,0-.12,0-.18s0-.13,0-.2-.05-.29-.1-.45-.09-.32-.15-.5c-.11-.34-.25-.71-.36-1.09a4.72,4.72,0,0,1-.13-.58,3.31,3.31,0,0,1,0-.58s0-.09,0-.14V43l0-.13,0-.13v-.06l0-.06,0-.12.08-.22.09-.19.09-.17.08-.14.07-.12.15-.22-.14.23-.07.12-.07.15-.08.17-.07.2c0,.07,0,.14-.06.22l0,.12v.12l0,.12v.26s0,.09,0,.13a3.16,3.16,0,0,0,.08.54,4.53,4.53,0,0,0,.17.55c.13.36.29.71.43,1.06.07.17.14.34.19.5s.1.32.14.47,0,.15,0,.22,0,.13,0,.2l0,.18c0,.06,0,.11,0,.15v.27Z" transform="translate(-54.69 -32.01)"/><path class="cls-4" d="M200.1,44.68V42.82c0-.47,0-.93,0-1.28,0-.17,0-.32,0-.42s0-.09,0-.12v0s0,.07,0,.12,0,.25,0,.42c0,.35,0,.81.06,1.28l.09,1.27,0,.58Z" transform="translate(-54.69 -32.01)"/><path class="cls-4" d="M231.28,47.9l-.3-.12-.34-.15-.21-.1-.23-.11-.5-.28-.27-.16-.27-.18c-.18-.13-.37-.26-.55-.41a6.36,6.36,0,0,1-.53-.48,6.15,6.15,0,0,1-.47-.54,5.53,5.53,0,0,1-.39-.58,6.26,6.26,0,0,1-.29-.58c-.09-.19-.16-.36-.22-.53a4.52,4.52,0,0,0-.2-.43,1.13,1.13,0,0,0-.21-.29.84.84,0,0,0-.19-.13l-.08,0,.08,0a.79.79,0,0,1,.22.11,1.1,1.1,0,0,1,.27.28,3.47,3.47,0,0,1,.25.42l.26.5c.09.18.2.36.32.54a6.65,6.65,0,0,0,.39.54c.14.18.3.35.46.51s.33.32.5.47.35.29.52.42l.51.37.47.31.41.26.32.19Z" transform="translate(-54.69 -32.01)"/><path class="cls-4" d="M225.49,43l-.06-.09-.16-.22-.11-.15-.12-.17-.12-.19a2.23,2.23,0,0,1-.1-.21l0-.05,0-.06a1.09,1.09,0,0,1,0-.11l0-.11s0-.07,0-.11v-.21c0-.07,0-.13,0-.19l0-.15s0-.08,0-.12l0-.1,0,.1s0,.07,0,.12v.15c0,.06,0,.12,0,.18v.2l0,.1,0,.1a1,1,0,0,0,0,.1l0,.05,0,0a2.1,2.1,0,0,0,.11.19l.13.17.13.15.12.14.19.21.07.08Z" transform="translate(-54.69 -32.01)"/><path class="cls-4" d="M226.53,38l0-.06-.05-.07,0,0,0,0-.1-.06-.12,0H226l-.14,0-.14.06-.13.07-.22.15-.08.07-.06.06,0,0v0l0-.06,0-.08.07-.1a1.09,1.09,0,0,1,.21-.21,1.05,1.05,0,0,1,.3-.16l.18,0a.55.55,0,0,1,.18,0,.46.46,0,0,1,.15.07l.06,0,0,.05,0,.05,0,.05a.71.71,0,0,1,0,.09Z" transform="translate(-54.69 -32.01)"/><path class="cls-4" d="M225.32,38.32l.13,0,.13,0h.13l.12,0a.67.67,0,0,0,.22-.1l.1-.08.09-.09v.1l-.06,0-.07,0-.08,0h-.36l-.09,0,0,0,0,0,0,0,0,0,.1,0,.1,0h.11l.11,0,.1,0,0,0,0,0,.05,0,0,.06a.93.93,0,0,1-.22.2l-.14.07-.15,0h-.15l-.14,0-.13-.06Z" transform="translate(-54.69 -32.01)"/><path class="cls-4" d="M223.55,33.75l-.26.08-.3.09-.18.06-.2.07-.44.16a2,2,0,0,0-.44.24l-.09.08,0,0v0h0v.1s0,.09,0,.13a5.4,5.4,0,0,0,0,.57c0,.19,0,.39.05.58l.06.56c0,.18,0,.36,0,.53v.08h0v.12a1.06,1.06,0,0,0,.1.19l.23.33a1.43,1.43,0,0,1,.15.28.79.79,0,0,1,0,.11s0,.06,0,.09v0l0-.08,0,0,0-.05a1.68,1.68,0,0,0-.19-.24l-.27-.3a1.21,1.21,0,0,1-.14-.2l0-.07v-.1h0v0h0v-.06l-.08-.52c0-.18-.06-.37-.08-.57s0-.39-.06-.59a4.65,4.65,0,0,1,0-.6,1.53,1.53,0,0,1,0-.16v-.09l0-.05,0,0h0v0l0,0,.06-.06.12-.1a1.93,1.93,0,0,1,.51-.24,4.53,4.53,0,0,1,.47-.12l.4-.08.31,0,.2,0Z" transform="translate(-54.69 -32.01)"/><path class="cls-4" d="M222.73,34.62l0,.11s0,.08,0,.13,0,.11,0,.17,0,.27,0,.43,0,.32,0,.49,0,.17,0,.25,0,.16,0,.24-.06.3-.09.42-.06.22-.09.29l0,.11s0,0,0-.12,0-.18,0-.31,0-.27,0-.43,0-.16,0-.24,0-.16,0-.25l0-.25,0-.24c0-.15,0-.3.07-.42l0-.17,0-.13Z" transform="translate(-54.69 -32.01)"/><path class="cls-4" d="M219.58,39.26l.06.22c0,.14.09.34.14.58s.05.25.08.39.05.29.08.44,0,.31.06.48,0,.33,0,.49,0,.33,0,.5,0,.33,0,.48a3.48,3.48,0,0,1-.09.44c0,.07,0,.14-.06.2s0,.13-.07.18l-.08.16,0,.07,0,.07-.08.12,0,.05,0,0-.07.07-.05,0,0,0,0,0,0-.06.05-.08,0,0,0-.05.07-.12,0-.07,0-.07.06-.16c0-.06,0-.12.05-.18s0-.13,0-.2,0-.28.06-.43,0-.31,0-.47,0-.32,0-.49,0-.33,0-.49,0-.32,0-.47,0-.3-.05-.44l-.05-.39-.08-.59Z" transform="translate(-54.69 -32.01)"/><path class="cls-4" d="M220.78,43.23v-.54c0-.08,0-.17,0-.26s0-.19,0-.29,0-.42-.06-.64c0-.43-.11-.87-.16-1.19s-.09-.54-.09-.54.06.21.13.53.17.75.25,1.18c0,.22.08.43.11.64s0,.2,0,.29,0,.18,0,.26l0,.23,0,.17v.15Z" transform="translate(-54.69 -32.01)"/><path class="cls-4" d="M221.73,42.14l-.05,0,0,0,0,0,0,0,0,0-.08-.09-.07-.11-.06-.12,0-.12,0-.13,0-.12c0-.08,0-.15,0-.22l0-.21.07.2.08.2.05.11.06.11.07.1.07.09.07.07.07.05,0,0h.08l.06,0Z" transform="translate(-54.69 -32.01)"/><path class="cls-4" d="M228.33,46.85l-.11-.11-.12-.13-.15-.17-.17-.21-.18-.24-.19-.26-.18-.27-.17-.28-.15-.28-.13-.27-.11-.24-.08-.21-.05-.16,0-.15.05.14.07.16.1.2.12.23.15.25.17.26.19.26.2.26.2.24.2.22.18.19.16.15.13.11.11.1Z" transform="translate(-54.69 -32.01)"/><path class="cls-4" d="M201.58,51.67l0,0,0,0,.07,0,.08,0,.09,0,.19,0,.34,0h.15l-.15,0-.32.11-.16.07-.07,0-.06,0,0,0,0,0,0,0Z" transform="translate(-54.69 -32.01)"/><path class="cls-4" d="M201.51,50.67l.06,0,.16-.06.11,0,.12,0,.13,0,.14,0h.5l.16,0h-.39l-.12,0-.13,0-.12,0-.11,0-.1,0-.09,0-.13.08-.05,0Z" transform="translate(-54.69 -32.01)"/><path class="cls-4" d="M201.4,49.34l.07,0,.08,0h.1l.13,0,.15,0,.32,0c.44,0,.89.06.89.06s-.45.05-.9.08h-.92Z" transform="translate(-54.69 -32.01)"/><path class="cls-4" d="M201,47.8H201l.19,0,.58,0,.85,0-.85.08-.59,0h-.27Z" transform="translate(-54.69 -32.01)"/><path class="cls-4" d="M209.58,47.12h-.19l-.13,0-.15,0-.17,0-.18.05-.18.06-.18.07-.17.08-.16.08-.14.08a2.42,2.42,0,0,0-.27.19,2.44,2.44,0,0,1,.23-.24l.12-.11.14-.11.16-.11.17-.11.18-.1.18-.09.17-.07.16-.06.13,0,.1,0,.09,0Z" transform="translate(-54.69 -32.01)"/><polygon class="cls-4" points="161.91 21.8 161.11 21.43 161.96 21.65 161.91 21.8"/><path class="cls-4" d="M216.36,54.42h-.08l-.06,0-.07,0-.07,0-.07,0-.07-.05a2.08,2.08,0,0,1-.23-.21l-.09-.11.11.09a2,2,0,0,0,.26.17l.07,0,.07,0,.07,0,.06,0h.13Z" transform="translate(-54.69 -32.01)"/><path class="cls-4" d="M216.2,54.92h-.09l-.07,0-.08,0-.08,0-.08,0-.08-.05-.14-.12-.06-.06,0-.06a1,1,0,0,1-.08-.13l.1.11.05,0,.06.05.15.09.08,0,.08,0,.08,0h.21Z" transform="translate(-54.69 -32.01)"/><path class="cls-4" d="M222.18,54.41l0,0,0,0,0,0-.24-.11c-.18-.07-.38-.12-.38-.12s.2,0,.4,0l.27.07.05,0,0,0h0Z" transform="translate(-54.69 -32.01)"/><path class="cls-4" d="M222.19,54h0l-.08,0-.24-.09-.25-.06h.27l.27,0,.09,0h0Z" transform="translate(-54.69 -32.01)"/><polygon class="cls-4" points="167.36 21.48 166.78 21.22 167.41 21.32 167.36 21.48"/><path class="cls-4" d="M205.4,50.29l.14-.06.29-.14.29-.16.13-.08-.1.11-.24.23-.25.22-.11.1Z" transform="translate(-54.69 -32.01)"/><path class="cls-4" d="M205.63,50.95l0,0,.13-.06.39-.16.4-.14.18-.05-.17.09-.36.22-.34.24-.11.08,0,0Z" transform="translate(-54.69 -32.01)"/><path class="cls-4" d="M206,57l0,0h0l-.09,0-.2.05-.25,0a6,6,0,0,1-.6,0h-.68c-.92,0-1.82-.16-1.82-.16l.57,0c.34,0,.8,0,1.25-.08l.66-.08.55-.11.2-.06.14-.06,0,0h0l0,0Z" transform="translate(-54.69 -32.01)"/><path class="cls-4" d="M212.13,56.13l0,0,0,0h0v0l0,0-.17.15-.23.15-.29.14-.33.11a4.25,4.25,0,0,1-.72.12,9.3,9.3,0,0,1-1.33,0l-.43,0h0l.43,0a9.13,9.13,0,0,0,1.29-.18,3.94,3.94,0,0,0,.65-.2l.27-.13.22-.15.16-.14.1-.12,0,0h0l0,0,0,0Z" transform="translate(-54.69 -32.01)"/><path class="cls-4" d="M217.48,56.33l0,0v0l0,0-.07.07-.08.07-.1.07-.11.06-.13.06-.28.1-.31.07a5,5,0,0,1-.68.06,6.81,6.81,0,0,1-1.25-.08l-.23,0-.17,0-.11,0h.52a6.64,6.64,0,0,0,1.21-.1,4.63,4.63,0,0,0,.62-.15l.27-.1.22-.11.09-.06.07-.05.05-.05,0,0,0,0v0l0,0Z" transform="translate(-54.69 -32.01)"/><path class="cls-4" d="M223.82,56.19v.11l0,.05a.53.53,0,0,1-.06.11.66.66,0,0,1-.21.18,1.21,1.21,0,0,1-.26.11,3,3,0,0,1-.6.1c-.22,0-.44,0-.67,0-.45,0-.9-.05-1.23-.09l-.4-.06-.15,0h.55c.33,0,.78,0,1.21-.09.22,0,.43-.06.63-.11a2.6,2.6,0,0,0,.5-.16l.15-.09s0,0,0-.06h0Z" transform="translate(-54.69 -32.01)"/><path class="cls-4" d="M200.62,41.49s0,.08,0,.22V42c0,.1,0,.21,0,.33s0,.25,0,.39,0,.14,0,.21l0,.22c0,.08,0,.15,0,.23l0,.23c0,.16,0,.32.07.48s.05.32.08.47.06.31.09.46.06.29.09.43l.09.38.08.32.06.25,0,.16,0,.06,0-.05-.06-.15-.09-.24c0-.09-.07-.2-.11-.32l-.06-.18-.06-.2c0-.13-.08-.28-.11-.43l-.05-.23c0-.08,0-.15-.05-.23l0-.24c0-.08,0-.16,0-.24s0-.32-.06-.48l0-.24c0-.08,0-.16,0-.23v-.23c0-.07,0-.15,0-.22s0-.27,0-.4,0-.23,0-.33,0-.18,0-.25Z" transform="translate(-54.69 -32.01)"/><path class="cls-4" d="M228,47v.1c0,.07,0,.17,0,.29s0,.28,0,.46,0,.18,0,.28l0,.31c0,.22,0,.45,0,.7s0,.25,0,.38,0,.26,0,.4,0,.27,0,.41v.42c0,.29,0,.57,0,.86V53a4,4,0,0,1,0,.42,2.59,2.59,0,0,1-.22.77,1.94,1.94,0,0,1-.42.58,1.69,1.69,0,0,1-.25.2l-.25.14a2.26,2.26,0,0,1-.44.15l-.29,0h-.1l.1,0,.29-.07a2.22,2.22,0,0,0,.42-.17,1.85,1.85,0,0,0,.84-.92,2.52,2.52,0,0,0,.19-.74,3.78,3.78,0,0,0,0-.41V51.67c0-.29,0-.58,0-.87s0-.57,0-.84,0-.54.06-.78,0-.48.08-.7.05-.41.08-.59,0-.33.07-.45l.05-.29Z" transform="translate(-54.69 -32.01)"/><path class="cls-4" d="M220,33.09l-.08.14-.08.17c0,.06-.05.12-.07.19s-.09.29-.13.45l0,.12,0,.12c0,.08,0,.17,0,.26s-.05.35-.07.53l0,.27c0,.09,0,.18,0,.27s0,.36,0,.53,0,.34,0,.5,0,.31,0,.45c0,.55,0,.92,0,.92s-.09-.36-.2-.9c0-.14-.05-.28-.08-.44s-.05-.32-.08-.5,0-.35-.07-.54,0-.18,0-.28l0-.28c0-.19,0-.38,0-.57s0-.19,0-.28v-.28c0-.18,0-.36.06-.53s0-.17,0-.25,0-.16.06-.24l0-.11A3.7,3.7,0,0,0,220,33.09Z" transform="translate(-54.69 -32.01)"/><path class="cls-4" d="M227.38,36.88a13.08,13.08,0,0,1-.93-2.15A3.12,3.12,0,0,0,225.38,33a3,3,0,0,0-2.5-.18,3.07,3.07,0,0,1,1.41.19c.35.26.25,1,.25,1a.88.88,0,0,1,1.06.21C226.09,34.79,226.34,35.63,227.38,36.88Z" transform="translate(-54.69 -32.01)"/><path class="cls-4" d="M226.94,36l.05.09.14.25a4.14,4.14,0,0,1,.19.4,3.43,3.43,0,0,1,.18.55,4.49,4.49,0,0,1,.1.68l0,.75c0,.52.09,1.07.16,1.62,0,.28.08.55.13.82s.1.53.13.8,0,.51.06.75,0,.47,0,.67c0,.42,0,.77,0,1v.28a.42.42,0,0,1,0,.1.45.45,0,0,1,0-.1v-.28c0-.24,0-.59,0-1,0-.21,0-.43,0-.67s0-.49-.07-.75-.09-.52-.14-.79-.1-.54-.14-.82c-.08-.55-.14-1.11-.18-1.63l-.06-.75a4.36,4.36,0,0,0-.1-.66,3.29,3.29,0,0,0-.18-.53,4,4,0,0,0-.19-.38l-.14-.24-.05-.08Z" transform="translate(-54.69 -32.01)"/><path class="cls-4" d="M205.7,48.19l0,.09,0,.11-.07.15a1.71,1.71,0,0,1-.24.36,3.86,3.86,0,0,1-.41.39,2.32,2.32,0,0,0-.43.45,1.71,1.71,0,0,0-.26.62,3.38,3.38,0,0,0-.08.74c0,.26,0,.53,0,.79s0,.53,0,.8,0,.52.08.77.06.49.09.72.07.44.11.64.08.38.12.53.08.29.12.4a2.27,2.27,0,0,0,.11.25l0,.06v0l0,0,0-.06a2,2,0,0,1-.15-.24,3.76,3.76,0,0,1-.18-.39c-.06-.16-.12-.33-.18-.53s-.11-.41-.16-.64-.1-.47-.14-.72-.08-.51-.11-.78-.05-.54-.07-.81,0-.55,0-.82,0-.27,0-.4,0-.13,0-.2v-.1l0-.1a2,2,0,0,1,.34-.7,2.44,2.44,0,0,1,.51-.45,4.69,4.69,0,0,0,.44-.32,1.93,1.93,0,0,0,.28-.3,2.27,2.27,0,0,0,.15-.23Z" transform="translate(-54.69 -32.01)"/><path class="cls-4" d="M218.22,45.93l-.06.37,0,.2,0,.23c0,.17-.06.35-.11.56l-.06.32-.07.34c0,.23-.11.48-.16.73l-.19.78c-.07.26-.13.53-.21.8s-.15.53-.22.8l-.22.77c-.15.5-.29,1-.41,1.36l-.3,1-.12.36h0l0-.1c0-.06,0-.16.05-.28s.05-.26.09-.43.08-.35.13-.55l.07-.31.08-.34c.06-.23.12-.47.18-.72l.1-.38.1-.39c.07-.26.14-.53.21-.79l.21-.79c.07-.26.14-.52.21-.77s.13-.49.19-.72l.18-.64.15-.54.12-.42.08-.27,0-.1h0Z" transform="translate(-54.69 -32.01)"/></g><line class="cls-5" x1="90.35" y1="25.42" x2="226.52" y2="25.42"/><path class="cls-1" d="M153.14,110.07c-.8,0-1.64,0-2.07-.07v-7c.55,0,1.43-.06,2.28-.06,2.51,0,3.56,1.3,3.56,3.47C156.92,108.83,155.37,110.07,153.14,110.07Zm.12-5.95-.82,0v4.71a4.49,4.49,0,0,0,.73.06,2.13,2.13,0,0,0,2.27-2.41C155.45,105,154.85,104.12,153.27,104.12Z" transform="translate(-54.69 -32.01)"/><path class="cls-1" d="M164.11,110h-1.62l-1.61-2.89h-.38V110h-1.37v-7c.55,0,1.23-.06,1.93-.06,1.64,0,2.63.7,2.63,2.1a2,2,0,0,1-1.45,1.81ZM161,104.08a3.39,3.39,0,0,0-.5,0v1.95h.42c.93,0,1.37-.4,1.37-1S161.87,104.08,161,104.08Z" transform="translate(-54.69 -32.01)"/><path class="cls-1" d="M166.18,110v-7H170v1.12h-2.45v1.73h2.33V107h-2.33v1.89H170V110Z" transform="translate(-54.69 -32.01)"/><path class="cls-1" d="M173.86,110.12a6.34,6.34,0,0,1-1.65-.18l.16-1.27a4.19,4.19,0,0,0,1.51.27c.63,0,1.17-.26,1.17-.91,0-1.33-2.93-.72-2.93-3.09,0-1.17.94-2,2.63-2a6.3,6.3,0,0,1,1.28.13l-.15,1.18a3.85,3.85,0,0,0-1.19-.2c-.79,0-1.15.35-1.15.84,0,1.25,3,.79,3,3.06A2.38,2.38,0,0,1,173.86,110.12Z" transform="translate(-54.69 -32.01)"/><path class="cls-1" d="M180.19,110.12a6.34,6.34,0,0,1-1.65-.18l.16-1.27a4.19,4.19,0,0,0,1.51.27c.63,0,1.17-.26,1.17-.91,0-1.33-2.93-.72-2.93-3.09,0-1.17.94-2,2.63-2a6.3,6.3,0,0,1,1.28.13l-.15,1.18A3.85,3.85,0,0,0,181,104c-.79,0-1.15.35-1.15.84,0,1.25,3,.79,3,3.06A2.38,2.38,0,0,1,180.19,110.12Z" transform="translate(-54.69 -32.01)"/><path class="cls-1" d="M191.15,110.12c-1.84,0-2.71-1-2.71-2.54V103h1.37v4.49c0,1.06.46,1.51,1.43,1.51s1.44-.44,1.44-1.63V103H194v4.35C194,109.2,193,110.12,191.15,110.12Z" transform="translate(-54.69 -32.01)"/><path class="cls-1" d="M198.55,107.57h-.45V110h-1.37v-7c.57,0,1.21-.06,1.95-.06,1.55,0,2.61.67,2.61,2.24S200.12,107.57,198.55,107.57Zm0-3.5h-.47v2.34a2.39,2.39,0,0,0,.39,0c1,0,1.39-.53,1.39-1.23S199.49,104.08,198.57,104.08Z" transform="translate(-54.69 -32.01)"/><path class="cls-1" d="M205.18,107.57h-.45V110h-1.37v-7c.57,0,1.21-.06,1.95-.06,1.55,0,2.61.67,2.61,2.24S206.74,107.57,205.18,107.57Zm0-3.5h-.47v2.34a2.39,2.39,0,0,0,.39,0c1,0,1.39-.53,1.39-1.23S206.11,104.08,205.2,104.08Z" transform="translate(-54.69 -32.01)"/><path class="cls-1" d="M215.67,104.16V110H214.3v-5.85h-1.79V103h5v1.15Z" transform="translate(-54.69 -32.01)"/><path class="cls-1" d="M223.71,110v-3h-3v3h-1.37v-7h1.37v2.8h3V103h1.37v7Z" transform="translate(-54.69 -32.01)"/><path class="cls-1" d="M227.83,110v-7h3.81v1.12h-2.45v1.73h2.33V107h-2.33v1.89h2.45V110Z" transform="translate(-54.69 -32.01)"/><path class="cls-1" d="M244.55,110h-1.68l-1-3.84-.33-1.37h0l-.31,1.34-1,3.88h-1.63l-1.78-7h1.46l.92,3.91.27,1.29h0l.3-1.27,1-3.94h1.61l1,3.89.31,1.32h0l.27-1.29L245,103h1.37Z" transform="translate(-54.69 -32.01)"/><path class="cls-1" d="M251.08,110.12c-1.92,0-3.22-1.33-3.22-3.61a3.29,3.29,0,0,1,3.36-3.61c2,0,3.23,1.37,3.23,3.56C254.45,108.85,253,110.12,251.08,110.12Zm.1-6c-1.1,0-1.88.84-1.88,2.35s.67,2.44,1.83,2.44,1.88-.82,1.88-2.39S252.35,104.12,251.18,104.12Z" transform="translate(-54.69 -32.01)"/><path class="cls-1" d="M261.64,110H260l-1.61-2.89H258V110h-1.37v-7c.55,0,1.23-.06,1.93-.06,1.64,0,2.63.7,2.63,2.1a2,2,0,0,1-1.45,1.81Zm-3.11-5.94a3.39,3.39,0,0,0-.5,0v1.95h.42c.93,0,1.37-.4,1.37-1S259.4,104.08,258.53,104.08Z" transform="translate(-54.69 -32.01)"/><path class="cls-1" d="M263.71,110v-7h1.37v5.81h2.32V110Z" transform="translate(-54.69 -32.01)"/><path class="cls-1" d="M271.4,110.07c-.8,0-1.64,0-2.07-.07v-7c.55,0,1.43-.06,2.28-.06,2.51,0,3.56,1.3,3.56,3.47C275.18,108.83,273.63,110.07,271.4,110.07Zm.12-5.95-.82,0v4.71a4.49,4.49,0,0,0,.73.06,2.13,2.13,0,0,0,2.27-2.41C273.71,105,273.11,104.12,271.53,104.12Z" transform="translate(-54.69 -32.01)"/><path class="cls-1" d="M57.79,75.1c-.56-2-1-3-2.57-3h-.53V69.62h9.44v2.51H63.07c-1,0-1.35.33-1.35,1a2.24,2.24,0,0,0,.1.69l3.47,12.51,4-11.42c-.36-1.95-1.06-2.81-2.51-2.81h-.83V69.62h9.7v2.51H74.39c-1.12,0-1.55.23-1.55.89a3.91,3.91,0,0,0,.2.92L76.77,86l3.3-11.25a6,6,0,0,0,.3-1.65c0-.69-.59-1-1.85-1H77.43V69.62h9.08v2.51h-.73c-1.16,0-1.78.69-2.25,2.24l-5,17.39H74.13L70.67,79.92l-4,11.85H62.48Z" transform="translate(-54.69 -32.01)"/><path class="cls-1" d="M87.58,89.26h.69c1.75,0,2.38-.56,2.94-2.14l6.17-17.49H102l6.6,17.49c.63,1.68.83,2.14,2.67,2.14H112v2.51H100.52V89.26h1.78c1.25,0,1.85-.13,1.85-.86a3.41,3.41,0,0,0-.3-1.09l-1-2.61H95.6l-1,2.81a4.07,4.07,0,0,0-.26,1c0,.73.59.76,1.78.76h1.72v2.51H87.58ZM99.13,74.44l-2.61,7.66H102Z" transform="translate(-54.69 -32.01)"/><path class="cls-1" d="M127.74,69.62v2.51h-1.55c-1.91,0-2.21.2-2.21,2V89.26h4.12c2.61,0,4.16-.33,4.88-1.65a10.46,10.46,0,0,0,.92-5v-.4h2.54v9.57H115.86V89.26h1.29c1.91,0,2.18-.2,2.18-2v-13c0-1.85-.26-2-2.18-2h-1.29V69.62Z" transform="translate(-54.69 -32.01)"/><path class="cls-1" d="M153.95,69.62v2.51h-1.55c-1.91,0-2.21.2-2.21,2V89.26h4.13c2.61,0,4.16-.33,4.88-1.65a10.47,10.47,0,0,0,.92-5v-.4h2.54v9.57h-20.6V89.26h1.29c1.92,0,2.18-.2,2.18-2v-13c0-1.85-.26-2-2.18-2h-1.29V69.62Z" transform="translate(-54.69 -32.01)"/><path class="cls-1" d="M172.55,72.06c-3.6,0-5.08,2-5.12,6.73H164.9V69.62h20.86v9.18h-2.54c0-4.62-1.52-6.73-5.08-6.73h-.5V87.21c0,1.85.3,2,2.21,2h1.88v2.51H168.89V89.26h1.91c1.91,0,2.18-.2,2.18-2V72.06Z" transform="translate(-54.69 -32.01)"/><path class="cls-1" d="M193.21,75.1c-.56-2-1-3-2.57-3h-.53V69.62h9.44v2.51h-1.06c-1,0-1.35.33-1.35,1a2.24,2.24,0,0,0,.1.69l3.47,12.51,4-11.42c-.36-1.95-1.06-2.81-2.51-2.81h-.83V69.62H211v2.51h-1.22c-1.12,0-1.55.23-1.55.89a3.91,3.91,0,0,0,.2.92L212.19,86l3.3-11.25a5.94,5.94,0,0,0,.3-1.65c0-.69-.59-1-1.85-1h-1.09V69.62h9.08v2.51h-.73c-1.16,0-1.78.69-2.24,2.24l-5,17.39h-4.36l-3.47-11.85-4,11.85H197.9Z" transform="translate(-54.69 -32.01)"/><path class="cls-1" d="M226.28,89.26h1.42c1.91,0,2.18-.2,2.18-2v-13c0-1.85-.26-2-2.18-2h-1.42V69.62h11.95v2.51h-1.42c-1.91,0-2.18.2-2.18,2v13c0,1.85.26,2,2.18,2h1.42v2.51H226.28Z" transform="translate(-54.69 -32.01)"/><path class="cls-1" d="M243.8,82.62h2.57c.73,4.42,3.37,6.8,7.43,6.8,3,0,4.55-1,4.55-2.87s-1.19-2.71-3.76-3.3l-3.6-.83c-5-1.16-7.26-3-7.26-6.57,0-4.13,3.1-6.9,8-6.9a10,10,0,0,1,6.44,2.28l1.16-1.62h2V78h-2.51c-.76-4.09-3.33-6.34-6.93-6.34-2.71,0-4.19,1.09-4.19,2.84,0,1.55,1.06,2.38,3.27,2.87l4.46,1c4.72,1.09,7.06,3.37,7.06,6.9,0,4.16-3.33,7.13-8.28,7.13a12.21,12.21,0,0,1-7.36-2.74l-.73,2.08H243.8Z" transform="translate(-54.69 -32.01)"/><path class="cls-1" d="M275.32,72.06c-3.6,0-5.08,2-5.12,6.73h-2.54V69.62h20.86v9.18H286c0-4.62-1.52-6.73-5.08-6.73h-.5V87.21c0,1.85.3,2,2.21,2h1.88v2.51H271.65V89.26h1.91c1.91,0,2.18-.2,2.18-2V72.06Z" transform="translate(-54.69 -32.01)"/><path class="cls-1" d="M293.33,89.26h1.29c1.92,0,2.18-.2,2.18-2v-13c0-1.85-.26-2-2.18-2h-1.29V69.62h21.78v8.81h-2.51c-.13-5.18-1.35-6.3-5.84-6.3h-5.31v6.8h1.25c2.84,0,3.33-.66,3.53-4h2.51V86h-2.51c-.2-3.8-.73-4.52-3.5-4.52h-1.29v7.79h5.81c4,0,5-1.55,5.35-6.86h2.51v9.37H293.33Z" transform="translate(-54.69 -32.01)"/><path class="cls-1" d="M331.88,89.26h1.55v2.51H321.55V89.26h1.29c1.92,0,2.18-.2,2.18-2v-13c0-1.85-.26-2-2.18-2h-1.29V69.62h13.24c5.48,0,8.18,1.68,8.18,5.31,0,3.17-2.14,5.12-6.34,5.61,3.4.53,4.22,1.78,4.42,4.79l.13,2c.1,1.32.23,1.88,1,1.88,1,0,1-1.09,1-3.73h2.11c0,.4,0,.76,0,1.12,0,4-1.39,5.84-4.59,5.84a3.89,3.89,0,0,1-4.26-4.09l-.1-2.57c-.13-3.56-1.32-4.46-5.15-4.46h-1.58v5.91C329.67,89.06,330,89.26,331.88,89.26Zm1.68-10.46c3.1,0,4.55-1,4.55-3.33,0-2.57-1.48-3.33-4.65-3.33h-3.8v6.67Z" transform="translate(-54.69 -32.01)"/><path class="cls-1" d="M351,82.62h2.57c.73,4.42,3.37,6.8,7.43,6.8,3,0,4.55-1,4.55-2.87s-1.19-2.71-3.76-3.3l-3.6-.83c-5-1.16-7.26-3-7.26-6.57,0-4.13,3.1-6.9,8-6.9a10,10,0,0,1,6.44,2.28l1.16-1.62h2V78H366c-.76-4.09-3.33-6.34-6.93-6.34-2.71,0-4.19,1.09-4.19,2.84,0,1.55,1.06,2.38,3.27,2.87l4.46,1c4.72,1.09,7.06,3.37,7.06,6.9,0,4.16-3.33,7.13-8.28,7.13a12.21,12.21,0,0,1-7.36-2.74l-.73,2.08H351Z" transform="translate(-54.69 -32.01)"/></svg>